<?xml version="1.0" encoding="utf-8"?>
<!-- Generator: Adobe Illustrator 24.0.0, SVG Export Plug-In . SVG Version: 6.00 Build 0)  -->
<svg version="1.1" xmlns="http://www.w3.org/2000/svg" xmlns:xlink="http://www.w3.org/1999/xlink" x="0px" y="0px"
	 viewBox="0 0 104.1 160.7" style="enable-background:new 0 0 104.1 160.7;" xml:space="preserve">
<style type="text/css">
	.st0{fill-rule:evenodd;clip-rule:evenodd;fill:#E2381B;}
	.st1{fill:#3E3639;}
</style>
<g id="BACKGROUND">
</g>
<g id="OBJECT">
	<g>
		<g>
			<path class="st0" d="M33.8,125.7l3.1,30l18-25.4c13.4,0.2,31-3.1,31.8-14.9c1.1-16.5-2.8-26.6-8.9-33c-0.7-0.7-1.3-1.3-2-1.9
				c1.2-8.5,2.7-20.2,3.5-26.5c8-0.4,14.9-2.9,18.3-9.1l3-11.1l0.4-1.3c0,0-0.6-22.7-29.3-27.4C38.9-0.3,36.7,18.9,36.7,18.9l-2.4,9
				c-2,10.2,13.2,19.2,11.7,18.3C44,52,40.4,63,37.7,71.3C28,73.7,19,80.8,13.1,95.2C6.6,111,22.9,120.9,33.8,125.7z"/>
			<g>
				<path class="st1" d="M31.6,126.6l3.1,29.7l0.2,1.8l1-1.5l17.8-25.1c5.6,0.1,11.8-0.5,17.3-2c7-1.9,12.8-5.4,14.4-11.1h0
					c0.2-0.8,0.4-1.6,0.4-2.4c0.6-8.3-0.2-15.1-1.8-20.5c-1.6-5.5-4.2-9.7-7.3-13h0c-0.4-0.4-0.7-0.7-1-1c-0.3-0.2-0.5-0.5-0.8-0.7
					c0.1-0.6,0.2-1.1,0.2-1.7c1.1-8,2.4-18,3.1-23.8c1.8-0.1,3.5-0.3,5.1-0.7v0c5.7-1.2,10.5-3.8,13.1-8.8l0-0.1l0-0.1l3.4-12.4
					l0-0.1l0-0.1c0-0.1-0.6-23.2-29.9-28c-1-0.2-2-0.3-3-0.4c-0.3,0-0.7-0.1-1-0.1c-0.6-0.1-1.2-0.1-1.8-0.2c-0.4,0-0.7,0-1.1-0.1
					C62.6,4,62,4,61.5,4c-0.4,0-0.7,0-1.1,0c-0.5,0-1,0-1.4,0c-0.4,0-0.7,0-1,0c-0.4,0-0.9,0-1.3,0c-0.3,0-0.7,0-1,0.1
					c-0.4,0-0.8,0.1-1.2,0.1c-0.3,0-0.6,0.1-0.9,0.1c-0.4,0-0.8,0.1-1.1,0.1c-0.3,0-0.6,0.1-0.9,0.2c-0.3,0.1-0.7,0.1-1,0.2
					C50.3,4.8,50,4.9,49.8,5c-0.3,0.1-0.6,0.2-1,0.2c-0.3,0.1-0.5,0.1-0.7,0.2c-0.3,0.1-0.6,0.2-0.9,0.3c-0.2,0.1-0.5,0.2-0.7,0.3
					c-0.3,0.1-0.6,0.2-0.8,0.3c-0.2,0.1-0.4,0.2-0.6,0.3c-0.3,0.1-0.5,0.2-0.8,0.4c-0.2,0.1-0.4,0.2-0.6,0.3
					c-0.2,0.1-0.5,0.3-0.7,0.4c-0.2,0.1-0.3,0.2-0.5,0.3c-0.2,0.1-0.4,0.3-0.6,0.4c-0.2,0.1-0.3,0.2-0.5,0.3
					c-0.2,0.1-0.4,0.3-0.6,0.4c-0.1,0.1-0.3,0.2-0.4,0.3c-0.2,0.2-0.4,0.3-0.5,0.5c-0.1,0.1-0.2,0.2-0.4,0.3
					c-0.2,0.2-0.3,0.3-0.5,0.5c-0.1,0.1-0.2,0.2-0.3,0.3c-0.2,0.2-0.3,0.3-0.4,0.5c-0.1,0.1-0.2,0.2-0.3,0.3
					c-0.1,0.2-0.3,0.3-0.4,0.5c-0.1,0.1-0.2,0.2-0.2,0.3c-0.1,0.2-0.2,0.3-0.3,0.5c-0.1,0.1-0.1,0.2-0.2,0.3
					c-0.1,0.2-0.2,0.3-0.3,0.5c-0.1,0.1-0.1,0.2-0.2,0.3c-0.1,0.2-0.2,0.3-0.3,0.5c0,0.1-0.1,0.2-0.1,0.3c-0.1,0.2-0.2,0.3-0.2,0.5
					c0,0.1-0.1,0.2-0.1,0.3c-0.1,0.2-0.1,0.3-0.2,0.4c0,0.1-0.1,0.1-0.1,0.2c-0.1,0.1-0.1,0.3-0.2,0.4c0,0.1,0,0.1-0.1,0.2
					c-0.1,0.1-0.1,0.3-0.1,0.4c0,0.1,0,0.1-0.1,0.2c0,0.1-0.1,0.3-0.1,0.4c0,0,0,0.1,0,0.1c0,0.1-0.1,0.2-0.1,0.3c0,0,0,0.1,0,0.1
					c0,0.1-0.1,0.2-0.1,0.3c0,0,0,0,0,0c0,0.2-0.1,0.4-0.1,0.5l-2.3,9l0,0.1c0,0-2,10.2,11.5,18.7c-1.4,4.2-3.5,10.6-5.4,16.3
					c-0.9,2.8-1.8,5.5-2.6,8c-5.1,1.3-10,3.9-14.4,8.2c-4,3.9-7.6,9.1-10.4,16C4.2,111.6,20.5,121.7,31.6,126.6z M51.3,132.3
					c-6.4,0.3-9.5-0.9-9.5-0.9l-0.2,0.5c0,0,3.2,1.2,9.4,1l-0.8,1.2c-3.3,0-5.9-0.6-5.9-0.6l-0.1,0.5c0,0,2.5,0.6,5.7,0.6l-0.7,1
					c-2.4,0.4-5.7-0.2-5.7-0.2l-0.1,0.5c0,0,3,0.5,5.4,0.2l-1.8,2.5c-3.8,0.9-5.8,0.4-5.8,0.4l-0.1,0.5c0,0,1.8,0.5,5.4-0.3
					l-1.5,2.1c-1.7,0.2-2.2,0-2.2,0l-0.2,0.5c0,0,0.5,0.2,1.9,0.1l-8.9,12.5L33,127.2c1.4,0.6,2.7,1.1,3.8,1.5c0,0,0,0,0,0
					c0.2,0.1,0.4,0.1,0.6,0.2c0.1,0,0.1,0,0.2,0.1c0.1,0,0.3,0.1,0.4,0.1c0.1,0,0.1,0,0.2,0.1c0.1,0,0.2,0.1,0.3,0.1
					c0.1,0,0.1,0,0.2,0.1c0.1,0,0.2,0.1,0.3,0.1c0.1,0,0.1,0,0.2,0.1c0,0,0.1,0,0.1,0c1,0.3,1.6,0.5,1.6,0.5l0,0
					c0.3,0.1,0.7,0.2,1,0.3c0.1,0,0.2,0.1,0.4,0.1c0.3,0.1,0.5,0.1,0.8,0.2c0.1,0,0.3,0.1,0.4,0.1c0.4,0.1,0.8,0.1,1.2,0.2
					c0.1,0,0.3,0,0.4,0.1c0.3,0,0.7,0.1,1,0.1c0.1,0,0.2,0,0.2,0c0.1,0,0.2,0,0.3,0c0.2,0,0.5,0,0.7,0.1c0.2,0,0.4,0,0.5,0.1
					c0.3,0,0.6,0,0.9,0.1c0.1,0,0.3,0,0.4,0c0.1,0,0.2,0,0.2,0c0.1,0,0.2,0,0.3,0c0.7,0,1.4,0.1,2.1,0.1c0,0,0.1,0,0.1,0L51.3,132.3
					z M98.5,32.8L98.2,34c-1.7,5.3-6.7,8.3-12.8,9.8c-8,2-17.8,1.2-24.8-0.8l0,0C34,36.3,35.7,19.9,35.7,19.4l0,0c0,0,0-0.1,0-0.2
					c0,0,0,0,0,0c0,0,0-0.1,0-0.2c0,0,0-0.1,0-0.1c0-0.1,0-0.1,0-0.2c0-0.1,0-0.1,0-0.2c0-0.1,0-0.1,0.1-0.2c0-0.1,0-0.1,0.1-0.2
					c0-0.1,0-0.2,0.1-0.2c0-0.1,0.1-0.2,0.1-0.2c0-0.1,0.1-0.2,0.1-0.3c0-0.1,0.1-0.2,0.1-0.3c0-0.1,0.1-0.2,0.1-0.3
					c0-0.1,0.1-0.2,0.1-0.3c0-0.1,0.1-0.2,0.1-0.3c0.1-0.1,0.1-0.2,0.2-0.3c0.1-0.1,0.1-0.2,0.2-0.3c0.1-0.1,0.1-0.2,0.2-0.3
					c0.1-0.1,0.1-0.2,0.2-0.3c0.1-0.1,0.1-0.2,0.2-0.4c0.1-0.1,0.2-0.2,0.2-0.4c0.1-0.1,0.2-0.3,0.3-0.4c0.1-0.1,0.2-0.2,0.3-0.4
					c0.1-0.1,0.2-0.3,0.3-0.4c0.1-0.1,0.2-0.2,0.3-0.4c0.1-0.1,0.2-0.3,0.3-0.4c0.1-0.1,0.2-0.2,0.3-0.4c0.1-0.1,0.2-0.3,0.4-0.4
					c0.1-0.1,0.3-0.2,0.4-0.4c0.1-0.1,0.3-0.3,0.4-0.4c0.1-0.1,0.3-0.2,0.4-0.4c0.2-0.1,0.3-0.2,0.5-0.4c0.2-0.1,0.3-0.2,0.5-0.3
					c0.2-0.1,0.3-0.2,0.5-0.4C43,9.2,43.2,9.1,43.3,9c0.2-0.1,0.4-0.2,0.6-0.3c0.2-0.1,0.4-0.2,0.6-0.3c0.2-0.1,0.4-0.2,0.6-0.3
					c0.2-0.1,0.4-0.2,0.6-0.3c0.2-0.1,0.4-0.2,0.7-0.3c0.2-0.1,0.5-0.2,0.7-0.3c0.2-0.1,0.5-0.2,0.7-0.3c0.2-0.1,0.5-0.2,0.8-0.2
					c0.3-0.1,0.5-0.2,0.8-0.2c0.3-0.1,0.6-0.1,0.8-0.2c0.3-0.1,0.6-0.1,0.8-0.2C51.4,6,51.7,5.9,52,5.9c0.3-0.1,0.6-0.1,0.9-0.2
					c0.3,0,0.7-0.1,1-0.1c0.3,0,0.6-0.1,1-0.1c0.4,0,0.7-0.1,1.1-0.1c0.3,0,0.7-0.1,1-0.1c0.4,0,0.8,0,1.2,0c0.4,0,0.7,0,1.1,0
					c0.4,0,0.9,0,1.3,0c0.4,0,0.7,0,1.1,0c0.5,0,1,0.1,1.5,0.1c0.4,0,0.7,0,1.1,0.1c0.6,0,1.2,0.1,1.8,0.2c0.3,0,0.6,0.1,1,0.1
					c0.9,0.1,1.9,0.3,2.9,0.4c24.5,4,28.1,21.3,28.7,25.7C98.5,32.4,98.5,32.7,98.5,32.8z M33.4,28.5l1.3-5.1c1.1,5.7,6,16,25.6,21
					l0,0c7.2,2.1,17.3,2.8,25.5,0.8c4.5-1.1,8.5-3.1,11.1-6.1l-0.6,2.1l-0.1-0.1l-0.1,0.1l-0.2,0.2l-0.2,0.2l-0.2,0.2l-0.2,0.2
					L95.1,42l-0.2,0.2l-0.2,0.2l-0.2,0.2l-0.2,0.2L94,42.8L93.8,43l-0.2,0.1l-0.2,0.1l-0.2,0.1l-0.2,0.1l-0.2,0.1l-0.2,0.1L92.2,44
					L92.1,44l0.3,0.4l0.1-0.1l0.2-0.1l0.2-0.1l0.2-0.1l0.2-0.1l0.2-0.1l0.2-0.1l0.2-0.2l0.2-0.2l0.2-0.2l0.2-0.2l0.2-0.2l0.2-0.2
					l0.2-0.2l0.2-0.2l0.2-0.2l0.2-0.2l0,0l-0.9,3.3c-0.4,0.7-0.9,1.4-1.3,2l-0.2-0.2c-9.9,8.9-31.6,4.3-31.6,4.3l-0.1,0.5
					c0.1,0,20.7,4.4,31.1-3.7c-2.5,2.6-6,4.2-10,5.1h0c-1.7,0.4-3.5,0.6-5.4,0.7l-0.1,0c0,0-0.1,0-0.1,0c-0.8,0-1.6,0.1-2.4,0.1
					c-0.3,0-0.6,0-0.9,0c-0.6,0-1.3,0-1.9-0.1c-0.2,0-0.5,0-0.7,0c-0.8,0-1.7-0.1-2.5-0.2c-0.3,0-0.6-0.1-0.9-0.1
					c-0.6-0.1-1.3-0.1-1.9-0.2c-0.3,0-0.6-0.1-0.9-0.1c-0.6-0.1-1.3-0.2-1.9-0.3c-0.3,0-0.5-0.1-0.8-0.1c-0.9-0.2-1.8-0.3-2.6-0.5
					c-0.9-0.2-1.7-0.5-2.5-0.7c-0.3-0.1-0.6-0.2-0.9-0.3c-0.5-0.2-1-0.3-1.4-0.5c-0.4-0.1-0.7-0.2-1-0.4c-0.4-0.1-0.8-0.3-1.1-0.4
					c-0.4-0.1-0.7-0.3-1.1-0.4c-0.3-0.1-0.6-0.2-0.9-0.4c-0.4-0.2-0.8-0.3-1.1-0.5c-0.2-0.1-0.4-0.2-0.6-0.3
					c-0.4-0.2-0.8-0.4-1.2-0.6c-0.1-0.1-0.2-0.1-0.4-0.2c-0.5-0.2-0.9-0.5-1.4-0.7c0,0,0,0,0,0c-0.5-0.3-1-0.6-1.4-0.8l-0.3-0.2
					C31.8,38.1,33.3,29,33.4,28.5z M39.5,63.6c2.1-6.3,4-12.1,5.3-16c0.1,0.1,0.3,0.2,0.5,0.3c0.2,0.1,0.4,0.2,0.6,0.4
					c0.4,0.2,0.8,0.4,1.2,0.6c0.2,0.1,0.3,0.2,0.5,0.3c0.6,0.3,1.1,0.5,1.7,0.8c0.3,0.1,0.5,0.2,0.8,0.3c0.2,0.1,0.5,0.2,0.7,0.3
					c0.1,0.1,0.3,0.1,0.5,0.2c0.4,0.1,0.7,0.3,1.1,0.4c0.4,0.1,0.8,0.3,1.1,0.4c0.4,0.1,0.7,0.3,1.1,0.4c0.5,0.2,0.9,0.3,1.4,0.5
					c0.3,0.1,0.7,0.2,1,0.3c0.8,0.3,1.7,0.5,2.6,0.7l0,0c0.9,0.2,1.8,0.3,2.7,0.5c0.3,0,0.5,0.1,0.8,0.1c0.7,0.1,1.3,0.2,2,0.3
					c0.3,0,0.6,0.1,0.9,0.1c0.7,0.1,1.3,0.2,2,0.2c0.3,0,0.6,0.1,0.8,0.1c0.1,0,0.2,0,0.3,0c0.8,0.1,1.5,0.1,2.3,0.2
					c0.2,0,0.4,0,0.6,0c0.8,0,1.6,0.1,2.5,0.1c0.1,0,0.2,0,0.3,0c0.7,0,1.4,0,2,0c-0.1,0.7-0.2,1.4-0.3,2.1
					c-11,0.7-16.7-2.2-16.7-2.2l-0.2,0.5c0,0,5.8,2.9,16.9,2.3c0,0.3-0.1,0.7-0.1,1.1l-0.1,0l-0.1,0l-0.1,0l-0.1,0l-0.1,0l-0.1,0
					l-0.1,0l-0.1,0l-0.1,0l-0.1,0L75,59l-0.1,0l-0.1,0l0,0l0,0.5l0,0l0.1,0l0.1,0l0.1,0l0.1,0l0.1,0l0.1,0l0.1,0l0.1,0l0.1,0l0.1,0
					l0.1,0l0.1,0c0,0.3-0.1,0.7-0.1,1c-10.7,1.3-14.7-0.8-14.8-0.8l-0.2,0.5c0,0,4.1,2.1,14.9,0.8c0,0.3-0.1,0.7-0.1,1
					c-10.8,1.6-20-1.8-20-1.8l-0.2,0.5c0,0,9.2,3.4,20.1,1.9c0,0.3-0.1,0.7-0.1,1.1h0l-0.1,0l-0.1,0l-0.1,0l-0.1,0l-0.1,0l-0.1,0
					l-0.1,0l-0.1,0l-0.1,0l-0.1,0l-0.1,0l0,0l0.1,0.5l0,0l0.1,0l0.1,0l0.1,0l0.1,0l0.1,0l0.1,0l0.1,0l0.1,0l0.1,0l0.1,0
					c-0.2,1.4-0.4,2.7-0.5,4.2c-10.3,2.9-16.7,0.4-16.7,0.4l-0.2,0.5c0,0,6.5,2.5,16.8-0.3c0,0.3-0.1,0.7-0.1,1
					c-10.3,3.2-20-0.2-20.1-0.3l-0.2,0.5c0,0,9.8,3.4,20.1,0.3c-0.2,1.4-0.4,2.8-0.6,4.1l0,0l-0.1,0l-0.1,0l-0.1,0l-0.1,0l-0.1,0
					l-0.1,0l-0.1,0l-0.1,0l-0.1,0l-0.1,0L73,75l-0.1,0l-0.1,0l-0.1,0l-0.1,0l0.2,0.5l0.1,0l0.1,0l0.1,0l0.1,0l0.1,0l0.1,0l0.1,0
					l0.1,0l0.1,0l0.1,0l0.1,0l0.1,0l0.1,0c0,0.3-0.1,0.6-0.1,1c-9.9,4.5-18.9,1.7-18.9,1.7L55,78.2c0,0,9,2.8,19-1.6
					c-0.1,0.7-0.2,1.4-0.3,2.1c0,0.2,0,0.3-0.1,0.5c-9.7,5.1-20.6,2-20.6,2l-0.1,0.5c0,0,10.9,3.1,20.7-1.8l-0.1,1l0,0l-0.1,0.1
					l-0.1,0.1L73,81l-0.1,0.1l-0.1,0.1l-0.1,0.1l-0.1,0.1l-0.1,0.1l-0.1,0.1l-0.1,0.1l-0.1,0.1L72,81.5l-0.1,0.1l-0.1,0.1l-0.1,0.1
					l0,0l0.2,0.5l0,0l0.1-0.1l0.1-0.1l0.1-0.1l0.1-0.1l0.1-0.1l0.1-0.1l0.1-0.1l0.1-0.1l0.1-0.1l0.1-0.1l0.1-0.1l0.1-0.1l0,0
					c0,0.3-0.1,0.6-0.1,0.9c-9.5,5.7-21.1,2.6-21.1,2.6l-0.1,0.5c0,0,11.6,3.1,21.2-2.4c0,0.3-0.1,0.6-0.1,0.9c0,0,0,0.1,0,0.1
					c-0.1,0.4-0.1,0.8-0.2,1.2c0,0.1,0,0.2,0,0.3c0,0,0,0,0,0.1l-0.1,0.1l-0.1,0.1l-0.1,0.1l-0.1,0.1l-0.1,0.1L72,85.9L71.9,86
					l-0.1,0.1l-0.1,0.1l-0.1,0.1l0.2,0.4l0.1-0.1l0.1-0.1l0.1-0.1l0.1-0.1l0.1-0.1l0.1-0.1l0.1,0c0,0,0,0,0,0c0,0.2-0.1,0.4-0.1,0.6
					c0,0.2-0.1,0.4-0.1,0.5c0,0.1,0,0.2-0.1,0.3c0,0.3-0.1,0.5-0.1,0.7c0,0.1,0,0.1,0,0.2c0,0,0,0,0,0.1c-9,6.8-20.9,3.9-20.9,3.9
					l-0.1,0.5c0,0,11.7,2.9,20.9-3.6c0,0.2-0.1,0.4-0.1,0.5v0c-0.2,0.6-0.4,1.2-0.7,1.8c-9,6.7-23.7,2.2-23.7,2.1l-0.1,0.5
					c0,0,14,4.3,23.3-1.6c-1.2,1.7-3,3.3-5.8,4.2c-3.3,1.2-8,1.5-14.1,0.2v0c-1-0.2-2-0.5-3-0.8c-4.6-1.4-8.5-3.4-11-6.1
					c-2.5-2.6-3.6-5.8-2.7-9.6c0.1-0.3,0.1-0.6,0.2-0.9c0.3-0.9,0.6-1.9,0.9-3c0-0.1,0-0.1,0.1-0.2C36.4,73,37.9,68.4,39.5,63.6z
					 M12.1,95.9c2.8-6.7,6.2-11.8,10.1-15.6c4-3.8,8.4-6.3,12.9-7.6c-0.7,2.2-1.3,4.2-1.8,5.8c-0.1,0.3-0.2,0.6-0.3,0.9
					c-0.1,0.3-0.2,0.6-0.3,0.9c-1,4.3,0.2,7.9,3,10.9c2.7,2.8,6.8,5,11.6,6.5c1,0.3,2,0.6,3.1,0.8l0,0c6.4,1.3,11.3,1,14.8-0.2
					c4.7-1.6,7.1-4.8,7.9-7.9c0,0,0-0.1,0-0.1c0-0.1,0.1-0.3,0.1-0.4c0-0.1,0-0.1,0-0.2c0-0.2,0.1-0.4,0.1-0.6c0-0.1,0-0.2,0.1-0.3
					c0-0.2,0.1-0.5,0.1-0.7c0-0.1,0-0.2,0-0.3c0-0.3,0.1-0.6,0.1-0.9c0,0,0-0.1,0-0.1c0,0,0-0.1,0-0.1c0-0.3,0.1-0.5,0.1-0.8
					c0-0.1,0-0.2,0-0.3c0-0.3,0.1-0.5,0.1-0.8c0-0.1,0-0.1,0-0.2c0.1-0.7,0.2-1.5,0.4-2.3l0.1,0.1c0.3,0.3,0.7,0.7,1,1l0,0
					c0.1,0.1,0.2,0.3,0.4,0.4l0,0l0,0.2l0,0.2l0,0.2l0,0.1l0.5-0.1l0,0c0.5,0.5,0.9,1.1,1.3,1.6c0.8,14.8-13.5,17.1-13.6,17.1
					l0.1,0.5c0,0,14.3-2.3,14-16.8c0.3,0.5,0.6,1,0.9,1.5c0.5,15.2-16.9,18-16.9,18l0.1,0.5c0.1,0,17.1-2.8,17.4-17.6
					c0.9,1.7,1.7,3.5,2.4,5.5c-2.4,13.8-25.1,17.9-25.2,17.9l0.1,0.5c0.1,0,22.1-4,25.4-17.5c0,0,0,0.1,0,0.1c0.3,1,0.6,2.1,0.8,3.1
					c-5.1,9.3-16.8,12.5-16.9,12.5l0.1,0.5c0,0,11.5-3.1,16.9-12.2c0.1,0.6,0.2,1.2,0.3,1.8c-4,7.9-11.3,9.1-11.3,9.1l0.1,0.5
					c0,0,7.2-1.2,11.4-8.7c0.1,0.8,0.2,1.7,0.3,2.6l0,0.1l-0.1,0.1l-0.1,0.1l-0.1,0.1l-0.1,0.1l-0.1,0.1l-0.1,0.1l-0.1,0.1l-0.1,0.1
					l-0.1,0.1l-0.1,0.1l-0.1,0.1l-0.1,0.1l-0.1,0.1l-0.1,0.1l-0.1,0.1l-0.1,0.1l-0.1,0.1l-0.1,0.1l-0.1,0.1l-0.1,0.1l-0.1,0.1
					l-0.1,0.1l-0.1,0.1L82,108l-0.1,0.1l-0.1,0.1l-0.1,0.1l-0.1,0.1l-0.1,0.1l-0.1,0.1l0.4,0.4l0.1-0.1l0.1-0.1l0.1-0.1l0.1-0.1
					l0.1-0.1l0.1-0.1l0.1-0.1l0.1-0.1l0.1-0.1l0.1-0.1l0.1-0.1l0.1-0.1l0.1-0.1l0.1-0.1l0.1-0.1l0.1-0.1l0.1-0.1l0.1-0.1l0.1-0.1
					l0.1-0.1l0.1-0.1l0.1-0.1l0.1-0.1l0.1-0.1l0.1-0.1l0-0.1c0.1,1.3,0.2,2.6,0.2,3.9c-9.5,11.1-22.7,12.4-22.7,12.4l0.1,0.5
					c0,0,13.1-1.3,22.7-12.2c0,0.6,0,1.1,0,1.7l0,0l-0.1,0.2l-0.1,0.2l-0.1,0.2l-0.1,0.2l-0.1,0.2l-0.1,0.2l-0.1,0.2l-0.1,0.2
					l-0.1,0.2l-0.1,0.2l-0.1,0.2l-0.1,0.2l-0.1,0.2l-0.1,0.2l-0.1,0.1l-0.1,0.1l-0.1,0.1l-0.1,0.1l-0.1,0.1l-0.1,0.1l0.4,0.4
					l0.1-0.1l0.1-0.1l0.1-0.1l0.1-0.2l0.1-0.2l0.1-0.2l0.1-0.2l0.1-0.2l0.1-0.2l0.1-0.2l0.1-0.2l0.1-0.2l0.1-0.2l0.1-0.2l0.1-0.2
					l0.1-0.2l0.1-0.1c0,0.7-0.1,1.4-0.1,2.1c-6,14.9-33.4,12.9-33.5,12.9l0,0.5c0.1,0,26.3,1.9,33.4-11.9c-0.1,0.4-0.1,0.9-0.3,1.3
					v0c-1.5,5.2-6.9,8.4-13.4,10.2c-5.8,1.6-12.4,2.1-18.2,1.9c-0.2,0-0.4,0-0.5,0c-0.7,0-1.4-0.1-2.1-0.1c-0.5,0-1-0.1-1.5-0.1
					c0,0,0,0,0,0c-0.5,0-0.9-0.1-1.4-0.1c-0.1,0-0.2,0-0.2,0c-0.5-0.1-0.9-0.1-1.3-0.2c0,0-0.1,0-0.1,0c-0.5-0.1-0.9-0.1-1.3-0.2
					c0,0-0.1,0-0.1,0c-0.4-0.1-0.7-0.1-1.1-0.2c-0.1,0-0.1,0-0.2,0c-0.4-0.1-0.7-0.2-1-0.3h0l0,0c-0.2-0.1-4-1.1-8.8-3.2l-1-0.5l0,0
					C20.7,120.3,6,110.7,12.1,95.9z"/>
				<polygon class="st1" points="73.2,48.3 73.5,48.3 73.7,48.3 74,48.3 74.2,48.3 74.5,48.3 74.8,48.3 75,48.4 75.3,48.4 
					75.5,48.4 75.8,48.4 76.1,48.4 76.3,48.4 76.6,48.4 76.8,48.4 77.1,48.4 77.4,48.3 77.6,48.3 77.9,48.3 78,48.3 78,47.8 
					77.9,47.8 77.6,47.8 77.3,47.8 77.1,47.8 76.8,47.8 76.6,47.8 76.3,47.9 76.1,47.9 75.8,47.9 75.5,47.8 75.3,47.8 75,47.8 
					74.8,47.8 74.5,47.8 74.3,47.8 74,47.8 73.7,47.8 73.5,47.8 73.2,47.8 73,47.8 72.9,47.7 72.9,48.3 72.9,48.3 				"/>
				<polygon class="st1" points="60.1,46.1 60.3,46.1 60.6,46.2 60.8,46.2 61,46.3 61.2,46.3 61.5,46.4 61.7,46.5 61.9,46.5 
					62.1,46.6 62.4,46.6 62.6,46.7 62.8,46.7 63.1,46.8 63.3,46.8 63.5,46.9 63.8,46.9 64,47 64.2,47 64.5,47.1 64.7,47.1 
					64.7,47.1 64.8,46.6 64.8,46.6 64.6,46.6 64.3,46.5 64.1,46.5 63.9,46.4 63.6,46.4 63.4,46.3 63.2,46.3 62.9,46.2 62.7,46.2 
					62.5,46.1 62.3,46.1 62,46 61.8,46 61.6,45.9 61.4,45.8 61.1,45.8 60.9,45.7 60.7,45.7 60.5,45.6 60.3,45.6 60,45.5 59.9,45.5 
					59.7,45.9 59.9,46 				"/>
				<polygon class="st1" points="66.6,47.5 66.9,47.5 67.1,47.6 67.4,47.6 67.6,47.7 67.9,47.7 68.1,47.7 68.4,47.8 68.6,47.8 
					68.9,47.9 69.1,47.9 69.4,47.9 69.6,48 69.9,48 70.1,48 70.4,48 70.6,48.1 70.9,48.1 71.1,48.1 71.3,48.1 71.4,47.6 71.2,47.6 
					70.9,47.6 70.7,47.6 70.4,47.5 70.2,47.5 69.9,47.5 69.7,47.4 69.4,47.4 69.2,47.4 68.9,47.3 68.7,47.3 68.4,47.3 68.2,47.2 
					67.9,47.2 67.7,47.2 67.5,47.1 67.2,47.1 67,47 66.7,47 66.5,47 66.3,46.9 66.3,47.4 66.4,47.5 				"/>
				<polygon class="st1" points="53.7,44 53.9,44.1 54.1,44.1 54.2,44.2 54.4,44.3 54.6,44.3 54.8,44.4 54.9,44.5 55.1,44.5 
					55.3,44.6 55.5,44.6 55.7,44.7 55.9,44.8 56,44.8 56.2,44.9 56.4,45 56.6,45 56.8,45.1 57,45.1 57.2,45.2 57.4,45.3 57.6,45.3 
					57.8,45.4 58,45.4 58.2,45.5 58.3,45.5 58.4,45 58.4,45 58.2,45 58,44.9 57.8,44.8 57.6,44.8 57.4,44.7 57.2,44.7 57,44.6 
					56.8,44.5 56.6,44.5 56.4,44.4 56.2,44.3 56,44.3 55.8,44.2 55.6,44.2 55.5,44.1 55.3,44 55.1,44 54.9,43.9 54.7,43.8 
					54.6,43.8 54.4,43.7 54.2,43.7 54.1,43.6 53.9,43.5 53.7,43.5 53.6,43.4 53.4,43.9 53.5,44 				"/>
				<polygon class="st1" points="79.7,48.2 80,48.2 80.2,48.2 80.5,48.1 80.7,48.1 81,48.1 81.3,48 81.5,48 81.8,48 82,47.9 
					82.3,47.9 82.6,47.8 82.8,47.8 83.1,47.8 83.3,47.7 83.6,47.7 83.9,47.6 84.1,47.6 84.4,47.5 84.6,47.4 84.7,47.4 84.5,46.9 
					84.5,46.9 84.3,47 84,47.1 83.7,47.1 83.5,47.2 83.2,47.2 83,47.3 82.7,47.3 82.5,47.3 82.2,47.4 82,47.4 81.7,47.5 81.5,47.5 
					81.2,47.5 80.9,47.6 80.7,47.6 80.4,47.6 80.2,47.6 79.9,47.7 79.7,47.7 79.5,47.7 79.6,48.2 				"/>
				<polygon class="st1" points="86.4,47 86.6,46.9 86.9,46.8 87.2,46.7 87.4,46.7 87.6,46.6 87.9,46.5 88.1,46.4 88.4,46.3 
					88.6,46.2 88.9,46.1 89.1,46 89.4,45.9 89.6,45.8 89.9,45.7 90.1,45.6 90.3,45.5 90.6,45.4 90.8,45.3 91,45.2 90.7,44.7 
					90.6,44.8 90.4,44.9 90.1,45 89.9,45.1 89.7,45.2 89.4,45.4 89.2,45.5 88.9,45.6 88.7,45.6 88.5,45.7 88.2,45.8 88,45.9 
					87.7,46 87.5,46.1 87.2,46.2 87,46.3 86.7,46.3 86.5,46.4 86.3,46.5 86,46.6 86.2,47 				"/>
				<path class="st1" d="M47.2,41.3l0.2,0.1c1.5,0.7,3,1.3,4.5,1.9l0.2-0.5c-0.9-0.3-1.7-0.7-2.6-1.1c-0.7-0.3-2.1-0.9-2.1-0.9
					L47.2,41.3L47.2,41.3L47.2,41.3z"/>
				<polygon class="st1" points="90.7,46.3 90.6,46.4 90.5,46.4 90.7,46.9 90.8,46.8 91,46.8 91.1,46.7 91.3,46.6 91.5,46.5 
					91.7,46.4 91.9,46.3 92.1,46.2 92.3,46.1 92.5,46 92.6,45.9 92.8,45.8 93,45.7 93.2,45.6 93.4,45.5 93.6,45.4 93.7,45.3 
					93.9,45.2 94.1,45.1 94.3,45 94.5,44.9 94.6,44.8 94.8,44.6 95,44.5 95.2,44.4 95.2,44.4 94.9,44 94.9,44 94.7,44.1 94.5,44.2 
					94.4,44.3 94.2,44.4 94,44.5 93.8,44.7 93.7,44.8 93.5,44.9 93.3,45 93.1,45.1 92.9,45.2 92.8,45.3 92.6,45.4 92.4,45.5 
					92.2,45.6 92,45.7 91.8,45.8 91.7,45.9 91.5,45.9 91.3,46 91.1,46.1 90.9,46.2 				"/>
				<polygon class="st1" points="73.4,49.8 73.6,49.8 73.8,49.8 73.9,49.8 74.1,49.8 74.3,49.8 74.5,49.8 74.6,49.8 74.8,49.8 
					75,49.8 75.2,49.9 75.3,49.9 75.5,49.9 75.6,49.8 75.6,49.3 75.5,49.3 75.3,49.3 75.2,49.3 75,49.3 74.8,49.3 74.6,49.3 
					74.5,49.3 74.3,49.3 74.1,49.3 74,49.3 73.8,49.3 73.6,49.3 73.4,49.3 73.3,49.3 73.1,49.3 73.1,49.3 73,49.8 73.1,49.8 
					73.3,49.8 				"/>
				<polygon class="st1" points="78.2,49.8 78.4,49.7 78.6,49.7 78.8,49.7 79,49.7 79.2,49.7 79.4,49.7 79.5,49.7 79.7,49.6 
					79.9,49.6 80.1,49.6 80.3,49.6 80.5,49.6 80.7,49.5 80.8,49.5 81,49.5 81.2,49.5 81.4,49.4 81.6,49.4 81.8,49.4 82,49.4 
					82.2,49.3 82.4,49.3 82.6,49.3 82.7,49.2 82.9,49.2 83.1,49.2 83.3,49.1 83.2,48.6 83,48.7 82.9,48.7 82.7,48.7 82.5,48.8 
					82.3,48.8 82.1,48.8 81.9,48.9 81.7,48.9 81.5,48.9 81.3,48.9 81.2,49 81,49 80.8,49 80.6,49 80.4,49.1 80.2,49.1 80,49.1 
					79.9,49.1 79.7,49.1 79.5,49.2 79.3,49.2 79.1,49.2 78.9,49.2 78.8,49.2 78.6,49.2 78.4,49.2 78.2,49.3 78.2,49.3 78.2,49.8 
									"/>
				<path class="st1" d="M60.4,47.7L60.4,47.7L60.4,47.7c0.8,0.3,1.7,0.5,2.5,0.7l0.1-0.5c-0.8-0.2-1.7-0.4-2.4-0.7L60.4,47.7z"/>
				<polygon class="st1" points="85.8,48.6 86,48.5 86.2,48.5 86.4,48.4 86.6,48.4 86.8,48.3 87,48.2 87.2,48.2 87.3,48.1 
					87.5,48.1 87.7,48 87.9,47.9 88.1,47.9 88.3,47.8 88.1,47.3 87.9,47.4 87.8,47.5 87.6,47.5 87.4,47.6 87.2,47.6 87,47.7 
					86.8,47.8 86.6,47.8 86.4,47.9 86.3,47.9 86.1,48 85.9,48 85.7,48.1 85.7,48.1 85.8,48.6 				"/>
				<polygon class="st1" points="60.4,47.7 60.4,47.7 60.4,47.7 				"/>
				<polygon class="st1" points="65.6,48.9 65.7,49 65.8,49 65.9,49 66.1,49 66.2,49 66.3,49.1 66.4,49.1 66.6,49.1 66.7,49.1 
					66.8,49.2 67,49.2 67.1,49.2 67.2,49.2 67.4,49.2 67.5,49.3 67.7,49.3 67.8,49.3 67.9,49.3 68.1,49.3 68.2,49.4 68.4,49.4 
					68.5,49.4 68.7,49.4 68.8,49.4 68.9,49.5 69.1,49.5 69.2,49.5 69.4,49.5 69.5,49.5 69.7,49.5 69.9,49.6 70,49.6 70.2,49.6 
					70.3,49.6 70.5,49.6 70.5,49.6 70.5,49.1 70.5,49.1 70.4,49.1 70.2,49.1 70.1,49.1 69.9,49 69.8,49 69.6,49 69.5,49 69.3,49 
					69.2,49 69,48.9 68.9,48.9 68.7,48.9 68.6,48.9 68.4,48.9 68.3,48.9 68.1,48.8 68,48.8 67.9,48.8 67.7,48.8 67.6,48.8 
					67.5,48.7 67.3,48.7 67.2,48.7 67,48.7 66.9,48.6 66.8,48.6 66.7,48.6 66.5,48.6 66.4,48.6 66.3,48.5 66.1,48.5 66,48.5 
					65.9,48.5 65.8,48.5 65.6,48.4 65.5,48.4 65.5,48.4 65.4,48.9 65.4,48.9 				"/>
				<path class="st1" d="M64.3,49.9l-0.1,0.5c0,0,13.2,3,25.3-1.5l-0.2-0.5C77.3,52.8,64.3,49.9,64.3,49.9z"/>
				<polygon class="st1" points="61.5,58.4 61.6,58.4 61.7,58.4 61.8,58.4 61.9,58.4 62,58.5 62.1,58.5 62.2,58.5 62.3,58.5 
					62.4,58.5 62.5,58.5 62.6,58.6 62.7,58.6 62.8,58.6 62.9,58.6 63,58.6 63.1,58.7 63.2,58.7 63.3,58.7 63.4,58.7 63.5,58.7 
					63.6,58.8 63.7,58.8 63.8,58.8 63.9,58.8 64,58.8 64.1,58.8 64.2,58.9 64.4,58.9 64.5,58.9 64.6,58.9 64.7,58.9 64.8,58.9 
					64.9,59 65,59 65.1,59 65.2,59 65.3,59 65.5,59 65.6,59.1 65.7,59.1 65.8,59.1 65.9,59.1 66,59.1 66.1,59.1 66.2,59.1 
					66.4,59.2 66.5,59.2 66.5,58.7 66.4,58.7 66.3,58.6 66.2,58.6 66.1,58.6 66,58.6 65.9,58.6 65.7,58.6 65.6,58.5 65.5,58.5 
					65.4,58.5 65.3,58.5 65.2,58.5 65.1,58.5 65,58.5 64.9,58.4 64.8,58.4 64.6,58.4 64.5,58.4 64.4,58.4 64.3,58.4 64.2,58.3 
					64.1,58.3 64,58.3 63.9,58.3 63.8,58.3 63.7,58.2 63.6,58.2 63.5,58.2 63.4,58.2 63.3,58.2 63.2,58.2 63.1,58.1 63,58.1 
					62.9,58.1 62.8,58.1 62.7,58.1 62.6,58 62.5,58 62.4,58 62.3,58 62.2,58 62.1,58 62,57.9 61.9,57.9 61.8,57.9 61.7,57.9 
					61.6,57.9 61.5,57.8 61.5,57.8 61.4,58.3 61.4,58.3 				"/>
				<polygon class="st1" points="68.1,59.3 68.3,59.4 68.4,59.4 68.5,59.4 68.6,59.4 68.7,59.4 68.9,59.4 69,59.4 69.1,59.4 
					69.2,59.4 69.4,59.4 69.5,59.5 69.6,59.5 69.7,59.5 69.8,59.5 70,59.5 70.1,59.5 70.2,59.5 70.3,59.5 70.5,59.5 70.6,59.5 
					70.7,59.5 70.9,59.5 71,59.5 71.1,59.5 71.2,59.5 71.4,59.5 71.5,59.5 71.6,59.5 71.7,59.6 71.9,59.6 72,59.6 72.1,59.6 
					72.3,59.6 72.4,59.6 72.5,59.6 72.6,59.6 72.8,59.6 72.9,59.6 73,59.6 73.1,59.6 73.1,59 73,59 72.9,59 72.8,59 72.6,59 
					72.5,59 72.4,59 72.3,59 72.1,59 72,59 71.9,59 71.8,59 71.6,59 71.5,59 71.4,59 71.2,59 71.1,59 71,59 70.9,59 70.7,59 
					70.6,59 70.5,59 70.4,59 70.2,59 70.1,59 70,59 69.9,59 69.8,59 69.6,59 69.5,58.9 69.4,58.9 69.3,58.9 69.1,58.9 69,58.9 
					68.9,58.9 68.8,58.9 68.7,58.9 68.5,58.9 68.4,58.9 68.3,58.9 68.2,58.8 68.1,58.8 68.1,58.8 68,59.3 68,59.3 				"/>
				<polygon class="st1" points="55.1,56.1 55.1,56.1 55.1,56.1 				"/>
				<path class="st1" d="M55,56.6L55,56.6L55,56.6L55,56.6c1.6,0.6,3.3,1,4.9,1.4l0.1-0.5c-1.6-0.4-3.3-0.8-4.9-1.4l0,0l0,0l0,0l0,0
					L55,56.6L55,56.6z"/>
				<polygon class="st1" points="55.1,56.1 55.1,56.1 55.1,56.1 				"/>
				<path class="st1" d="M56.1,62.6c0,0,1.6,0.5,2.4,0.7l0.1-0.5c-0.8-0.2-1.6-0.5-2.4-0.7l0,0l0,0l0,0l0,0L56.1,62.6L56.1,62.6z"/>
				<polygon class="st1" points="66.3,64.6 66.4,64.6 66.5,64.6 66.6,64.6 66.7,64.6 66.7,64.1 66.7,64.1 66.6,64.1 66.5,64.1 
					66.4,64.1 66.2,64.1 66.2,64.1 66.2,64.6 66.2,64.6 				"/>
				<polygon class="st1" points="56.3,62.1 56.3,62.1 56.3,62.1 				"/>
				<polygon class="st1" points="60.2,63.8 60.2,63.8 60.3,63.8 60.4,63.8 60.5,63.8 60.5,63.8 60.6,63.8 60.7,63.3 60.6,63.3 
					60.6,63.3 60.5,63.3 60.4,63.3 60.3,63.3 60.3,63.3 60.2,63.2 60.2,63.2 60.1,63.7 60.1,63.7 				"/>
				<polygon class="st1" points="62.2,64.1 62.3,64.2 62.4,64.2 62.5,64.2 62.6,64.2 62.7,64.2 62.8,64.2 62.9,64.2 63,64.3 
					63.1,64.3 63.1,64.3 63.2,64.3 63.3,64.3 63.4,64.3 63.5,64.3 63.6,64.3 63.7,64.4 63.8,64.4 63.9,64.4 64,64.4 64.1,64.4 
					64.2,64.4 64.3,64.4 64.4,64.4 64.5,64.4 64.6,64.5 64.6,64.5 64.7,64 64.6,63.9 64.5,63.9 64.4,63.9 64.3,63.9 64.2,63.9 
					64.1,63.9 64.1,63.9 64,63.9 63.9,63.9 63.8,63.8 63.7,63.8 63.6,63.8 63.5,63.8 63.4,63.8 63.3,63.8 63.2,63.8 63.1,63.8 
					63,63.7 62.9,63.7 62.9,63.7 62.8,63.7 62.7,63.7 62.6,63.7 62.5,63.7 62.4,63.7 62.3,63.6 62.2,63.6 62.2,63.6 62.1,64.1 
					62.2,64.1 				"/>
				<polygon class="st1" points="56.1,62.6 56.1,62.6 56.1,62.6 56.1,62.6 				"/>
				<polygon class="st1" points="56.3,62.2 56.3,62.1 56.3,62.1 56.3,62.2 				"/>
				<polygon class="st1" points="72.4,64.5 72.5,64.5 72.7,64.5 72.8,64.5 72.9,64.5 72.8,64 72.7,64 72.6,64 72.5,64 72.4,64 
					72.3,64 72.4,64.6 				"/>
				<polygon class="st1" points="68.4,64.7 68.5,64.7 68.6,64.7 68.7,64.7 68.9,64.7 69,64.7 69.1,64.7 69.2,64.7 69.3,64.7 
					69.4,64.7 69.5,64.7 69.7,64.7 69.8,64.7 69.9,64.7 70,64.7 70.1,64.7 70.3,64.7 70.4,64.7 70.5,64.7 70.6,64.7 70.7,64.7 
					70.8,64.7 70.8,64.1 70.7,64.1 70.6,64.1 70.5,64.2 70.4,64.2 70.2,64.2 70.1,64.2 70,64.2 69.9,64.2 69.8,64.2 69.7,64.2 
					69.5,64.2 69.4,64.2 69.3,64.2 69.2,64.2 69.1,64.2 69,64.2 68.9,64.2 68.7,64.2 68.6,64.2 68.5,64.2 68.4,64.2 68.3,64.2 
					68.3,64.2 68.2,64.7 68.3,64.7 				"/>
				<polygon class="st1" points="70.6,65.8 70.5,65.8 70.4,65.8 70.3,65.8 70.1,65.8 70,65.8 69.9,65.8 69.8,65.8 69.6,65.8 
					69.5,65.8 69.4,65.8 69.3,65.8 69.3,66.3 69.4,66.3 69.5,66.3 69.7,66.3 69.8,66.3 69.9,66.3 70,66.3 70.2,66.3 70.3,66.3 
					70.4,66.3 70.5,66.3 70.7,66.3 70.8,66.3 70.9,66.3 71,66.3 71.2,66.3 71.3,66.3 71.4,66.2 71.5,66.2 71.7,66.2 71.8,66.2 
					71.9,66.2 72,66.2 72.2,66.2 72.3,66.2 72.4,66.2 72.5,66.1 72.7,66.1 72.8,66.1 72.9,66.1 73.1,66.1 73.2,66.1 73.3,66.1 
					73.4,66 73.6,66 73.7,66 73.8,66 74,66 74.1,65.9 74.2,65.9 74.3,65.9 74.4,65.9 74.4,65.4 74.3,65.4 74.1,65.4 74,65.4 
					73.9,65.5 73.8,65.5 73.6,65.5 73.5,65.5 73.4,65.5 73.2,65.5 73.1,65.6 73,65.6 72.9,65.6 72.7,65.6 72.6,65.6 72.5,65.6 
					72.4,65.6 72.2,65.7 72.1,65.7 72,65.7 71.9,65.7 71.7,65.7 71.6,65.7 71.5,65.7 71.4,65.7 71.2,65.7 71.1,65.7 71,65.8 
					70.9,65.8 70.7,65.8 				"/>
				<polygon class="st1" points="61.8,65.8 61.9,65.8 62,65.8 62.1,65.8 62.2,65.8 62.3,65.9 62.4,65.9 62.5,65.9 62.6,65.9 
					62.7,65.9 62.8,65.9 62.9,65.9 63,66 63.2,66 63.3,66 63.4,66 63.5,66 63.6,66 63.7,66 63.8,66.1 63.9,66.1 64,66.1 64.1,66.1 
					64.2,66.1 64.4,66.1 64.5,66.1 64.6,66.1 64.7,66.1 64.8,66.2 64.9,66.2 65,66.2 65.1,66.2 65.2,66.2 65.4,66.2 65.5,66.2 
					65.6,66.2 65.7,66.2 65.8,66.2 65.9,66.2 66.1,66.3 66.2,66.3 66.3,66.3 66.4,66.3 66.5,66.3 66.6,66.3 66.7,66.3 66.8,65.8 
					66.7,65.8 66.5,65.8 66.4,65.8 66.3,65.8 66.2,65.8 66.1,65.7 66,65.7 65.9,65.7 65.7,65.7 65.6,65.7 65.5,65.7 65.4,65.7 
					65.3,65.7 65.2,65.7 65.1,65.7 65,65.7 64.8,65.6 64.7,65.6 64.6,65.6 64.5,65.6 64.4,65.6 64.3,65.6 64.2,65.6 64.1,65.6 
					64,65.6 63.9,65.5 63.8,65.5 63.6,65.5 63.5,65.5 63.4,65.5 63.3,65.5 63.2,65.5 63.1,65.5 63,65.4 62.9,65.4 62.8,65.4 
					62.7,65.4 62.6,65.4 62.5,65.4 62.4,65.4 62.3,65.3 62.2,65.3 62.1,65.3 62,65.3 61.9,65.3 61.8,65.3 61.7,65.2 61.6,65.7 
					61.7,65.8 				"/>
				<path class="st1" d="M54.1,63.9L54.1,63.9c1.6,0.6,3.3,1,4.9,1.4l0.1-0.5c-1.6-0.3-3.3-0.8-4.9-1.4h0l0,0L54.1,63.9L54.1,63.9z"
					/>
				<polygon class="st1" points="54.3,63.4 54.3,63.4 54.3,63.4 				"/>
				<path class="st1" d="M56.9,66.3l-0.2,0.5c0,0,5.4,2.7,16.4,1.1L73,67.4C62.1,68.9,56.9,66.3,56.9,66.3z"/>
				<polygon class="st1" points="55.3,72.4 55.3,72.4 55.3,72.4 				"/>
				<path class="st1" d="M67,73.5l0-0.5c-1.7,0.1-3.4,0.1-5.1,0l0,0.5C63.6,73.6,65.3,73.6,67,73.5z"/>
				<path class="st1" d="M55.3,72.3L55.3,72.3L55.3,72.3L55.3,72.3L55.3,72.3L55.3,72.3L55.3,72.3c1.5,0.5,3.5,0.8,5.1,1l0.1-0.5
					c-1.4-0.2-2.9-0.4-4.3-0.8l-0.6-0.2l0,0l0,0l0,0l0,0L55.3,72.3L55.3,72.3z"/>
				<polygon class="st1" points="68.6,73.3 68.7,73.3 68.8,73.3 69,73.3 69.1,73.3 69.2,73.3 69.3,73.2 69.4,73.2 69.5,73.2 
					69.6,73.2 69.8,73.2 69.9,73.2 70,73.1 70.1,73.1 70.2,73.1 70.3,73.1 70.5,73.1 70.6,73 70.7,73 70.8,73 70.9,73 71,72.9 
					71.2,72.9 71.3,72.9 71.4,72.9 71.5,72.8 71.6,72.8 71.8,72.8 71.9,72.8 72,72.7 72.1,72.7 72.2,72.7 72.4,72.6 72.5,72.6 
					72.6,72.6 72.7,72.6 72.8,72.5 73,72.5 73.1,72.5 73.2,72.4 73.3,72.4 73.4,72.4 73.6,72.3 73.6,72.3 73.5,71.8 73.4,71.8 
					73.3,71.9 73.2,71.9 73.1,71.9 72.9,72 72.8,72 72.7,72 72.6,72.1 72.5,72.1 72.3,72.1 72.2,72.1 72.1,72.2 72,72.2 71.9,72.2 
					71.8,72.3 71.6,72.3 71.5,72.3 71.4,72.3 71.3,72.4 71.2,72.4 71.1,72.4 70.9,72.4 70.8,72.5 70.7,72.5 70.6,72.5 70.5,72.5 
					70.4,72.6 70.2,72.6 70.1,72.6 70,72.6 69.9,72.6 69.8,72.7 69.7,72.7 69.6,72.7 69.4,72.7 69.3,72.7 69.2,72.7 69.1,72.8 
					69,72.8 68.9,72.8 68.8,72.8 68.7,72.8 68.5,72.8 68.5,72.8 68.6,73.3 				"/>
				<polygon class="st1" points="59.3,76.5 59.2,76.5 59.2,76.5 59.1,76.5 59,76.4 58.9,76.4 58.8,76.4 58.7,76.4 58.6,76.4 
					58.5,76.4 58.4,76.4 58.3,76.4 58.2,76.4 58.2,76.4 58.1,76.3 58,76.3 57.9,76.3 57.8,76.3 57.7,76.3 57.6,76.3 57.6,76.3 
					57.5,76.3 57.4,76.3 57.4,76.8 57.4,76.8 57.5,76.8 57.6,76.8 57.7,76.8 57.8,76.8 57.8,76.8 57.9,76.8 58,76.9 58.1,76.9 
					58.2,76.9 58.3,76.9 58.4,76.9 58.5,76.9 58.5,76.9 58.6,76.9 58.7,76.9 58.8,76.9 58.9,77 59,77 59.1,77 59.2,77 59.3,77 
					59.4,77 59.4,77 59.5,76.5 59.4,76.5 				"/>
				<path class="st1" d="M54.9,75.9c-0.6-0.1-2-0.5-2-0.5h0l0,0l-0.1,0.5l0,0c0.3,0.1,1.7,0.4,2,0.5L54.9,75.9z"/>
				<polygon class="st1" points="64,76.6 63.9,76.6 63.8,76.6 63.7,76.6 63.6,76.6 63.5,76.6 63.3,76.6 63.2,76.6 63.1,76.6 
					63,76.6 62.9,76.6 62.8,76.6 62.7,76.6 62.6,76.6 62.5,76.6 62.4,76.6 62.3,76.6 62.2,76.6 62,76.6 62,76.6 62,77.1 62,77.1 
					62.1,77.1 62.3,77.1 62.4,77.1 62.5,77.1 62.6,77.1 62.7,77.1 62.8,77.1 62.9,77.1 63,77.1 63.1,77.1 63.2,77.1 63.3,77.1 
					63.5,77.1 63.6,77.1 63.7,77.1 63.8,77.1 63.9,77.1 64,77.1 64.1,77.1 64,76.6 				"/>
				<polygon class="st1" points="66.9,76.4 66.8,76.4 66.6,76.4 66.6,76.4 66.6,76.9 66.7,76.9 66.8,76.9 66.9,76.9 67.1,76.9 
					67.1,76.9 67.1,76.4 67,76.4 				"/>
				<polygon class="st1" points="70,75.9 69.8,75.9 69.7,75.9 69.6,76 69.6,76 69.7,76.5 69.7,76.5 69.8,76.4 70,76.4 70.1,76.4 
					70.2,76.4 70.1,75.9 				"/>
				<polygon class="st1" points="56.8,84.2 56.9,84.2 57,84.3 57.1,84.3 57.2,84.3 57.3,84.3 57.4,84.3 57.5,84.3 57.6,84.3 
					57.7,84.3 57.8,84.3 57.9,84.3 58,84.3 58.1,84.3 58.2,84.3 58.3,84.3 58.4,84.3 58.6,84.3 58.7,84.3 58.8,84.3 58.9,84.3 
					59,84.3 59.1,84.3 59.2,84.4 59.2,83.8 59.1,83.8 59,83.8 58.9,83.8 58.8,83.8 58.7,83.8 58.6,83.8 58.5,83.8 58.4,83.8 
					58.3,83.8 58.1,83.8 58,83.8 57.9,83.8 57.8,83.8 57.7,83.8 57.6,83.8 57.5,83.8 57.4,83.8 57.3,83.8 57.2,83.8 57.1,83.7 
					57,83.7 56.9,83.7 56.8,83.7 56.7,83.7 56.7,83.7 56.6,84.2 56.7,84.2 				"/>
				<polygon class="st1" points="59.9,84.4 60,84.4 60.1,84.4 60.2,84.4 60.3,84.4 60.5,84.4 60.6,84.4 60.7,84.4 60.8,84.4 
					60.9,84.3 61,84.3 61.2,84.3 61.3,84.3 61.4,84.3 61.5,84.3 61.6,84.3 61.7,84.3 61.9,84.3 62,84.3 62.1,84.3 62.2,84.3 
					62.3,84.3 62.3,83.8 62.2,83.8 62.1,83.8 62,83.8 61.8,83.8 61.7,83.8 61.6,83.8 61.5,83.8 61.4,83.8 61.3,83.8 61.1,83.8 
					61,83.8 60.9,83.8 60.8,83.8 60.7,83.8 60.6,83.8 60.5,83.8 60.3,83.8 60.2,83.8 60.1,83.8 60,83.8 59.9,83.8 59.8,83.8 
					59.7,83.8 59.7,84.4 59.8,84.4 				"/>
				<polygon class="st1" points="53.7,83.9 53.7,83.9 53.8,83.9 53.9,83.9 54,83.9 54.1,83.9 54.1,84 54.2,84 54.3,84 54.4,84 
					54.5,84 54.6,84 54.6,84 54.7,84 54.8,84 54.9,84.1 55,84.1 55.1,84.1 55.2,84.1 55.3,84.1 55.4,84.1 55.4,84.1 55.5,84.1 
					55.6,84.1 55.7,84.1 55.8,84.2 55.9,84.2 56,84.2 56.1,84.2 56.1,84.2 56.2,83.7 56.1,83.7 56,83.7 56,83.7 55.9,83.6 
					55.8,83.6 55.7,83.6 55.6,83.6 55.5,83.6 55.4,83.6 55.3,83.6 55.2,83.6 55.1,83.6 55.1,83.6 55,83.5 54.9,83.5 54.8,83.5 
					54.7,83.5 54.6,83.5 54.5,83.5 54.5,83.5 54.4,83.5 54.3,83.5 54.2,83.5 54.1,83.4 54.1,83.4 54,83.4 53.9,83.4 53.8,83.4 
					53.7,83.4 53.7,83.4 53.6,83.4 53.6,83.9 53.6,83.9 				"/>
				<polygon class="st1" points="62.8,84.3 62.9,84.2 63.1,84.2 63.2,84.2 63.3,84.2 63.4,84.2 63.6,84.2 63.7,84.2 63.8,84.2 
					63.9,84.2 64,84.1 64.2,84.1 64.3,84.1 64.4,84.1 64.5,84.1 64.7,84.1 64.8,84 64.9,84 65,84 65.2,84 65.3,84 65.4,84 
					65.3,83.5 65.2,83.5 65.1,83.5 65,83.5 64.8,83.5 64.7,83.5 64.6,83.6 64.5,83.6 64.4,83.6 64.2,83.6 64.1,83.6 64,83.6 
					63.9,83.6 63.7,83.7 63.6,83.7 63.5,83.7 63.4,83.7 63.3,83.7 63.1,83.7 63,83.7 62.9,83.7 62.8,83.7 62.8,83.7 62.8,84.3 				
					"/>
				<polygon class="st1" points="65.9,83.9 66,83.9 66.1,83.8 66.3,83.8 66.4,83.8 66.5,83.8 66.6,83.7 66.8,83.7 66.9,83.7 
					67,83.7 67.1,83.6 67.3,83.6 67.4,83.6 67.5,83.6 67.6,83.5 67.8,83.5 67.9,83.5 68,83.4 68.1,83.4 68.3,83.4 68.4,83.3 
					68.4,83.3 68.3,82.8 68.3,82.8 68.1,82.9 68,82.9 67.9,82.9 67.8,83 67.7,83 67.5,83 67.4,83.1 67.3,83.1 67.2,83.1 67,83.1 
					66.9,83.2 66.8,83.2 66.7,83.2 66.5,83.2 66.4,83.3 66.3,83.3 66.2,83.3 66.1,83.3 65.9,83.4 65.8,83.4 65.8,83.4 65.9,83.9 
									"/>
				<path class="st1" d="M50.5,83.3c0.8,0.2,1.7,0.4,2.5,0.5l0.1-0.5c-0.8-0.1-1.6-0.3-2.5-0.5l0,0l0,0h0l0,0v0L50.5,83.3L50.5,83.3
					L50.5,83.3z"/>
				<polygon class="st1" points="69,83.2 69.1,83.1 69.3,83.1 69.4,83.1 69.5,83 69.6,83 69.8,82.9 69.9,82.9 70,82.9 70.1,82.8 
					70.3,82.8 70.4,82.7 70.5,82.7 70.6,82.6 70.7,82.6 70.9,82.5 71,82.5 71.1,82.4 71.2,82.4 71.3,82.4 71.2,81.9 71,81.9 
					70.9,82 70.8,82 70.7,82.1 70.6,82.1 70.4,82.2 70.3,82.2 70.2,82.2 70.1,82.3 70,82.3 69.8,82.4 69.7,82.4 69.6,82.4 
					69.5,82.5 69.4,82.5 69.2,82.6 69.1,82.6 69,82.6 68.9,82.7 68.8,82.7 68.9,83.2 				"/>
				<path class="st1" d="M46.6,88.3L46.6,88.3L46.6,88.3L46.6,88.3c0.1,0,0.3,0.1,0.4,0.1c0.7,0.1,1.5,0.3,2.2,0.4l0.1-0.5
					c-0.8-0.1-1.7-0.3-2.5-0.5l0,0L46.6,88.3L46.6,88.3z"/>
				<polygon class="st1" points="46.7,87.8 46.7,87.8 46.7,87.8 				"/>
				<polygon class="st1" points="51.7,88.7 51.7,88.7 51.7,89.2 51.7,89.2 51.8,89.2 51.9,89.2 52,89.2 52.1,89.2 52.2,89.2 
					52.3,89.2 52.4,89.3 52.5,89.3 52.7,89.3 52.8,89.3 52.9,89.3 53,89.3 53.1,89.3 53.2,89.3 53.3,89.3 53.4,89.4 53.6,89.4 
					53.7,89.4 53.8,89.4 53.9,89.4 54,89.4 54.2,89.4 54.3,89.4 54.4,89.4 54.5,89.4 54.6,89.5 54.8,89.5 54.9,89.5 55,89.5 
					55.1,89.5 55.2,89.5 55.4,89.5 55.5,89.5 55.6,89.5 55.7,89.5 55.9,89.5 56,89.5 56.1,89.5 56.3,89.5 56.4,89.5 56.5,89.5 
					56.6,89.5 56.8,89.6 56.8,89.6 56.8,89 56.8,89 56.7,89 56.5,89 56.4,89 56.3,89 56.1,89 56,89 55.9,89 55.8,89 55.6,89 
					55.5,89 55.4,89 55.3,89 55.2,89 55,89 54.9,89 54.8,88.9 54.7,88.9 54.5,88.9 54.4,88.9 54.3,88.9 54.2,88.9 54.1,88.9 
					54,88.9 53.8,88.9 53.7,88.9 53.6,88.9 53.5,88.8 53.4,88.8 53.3,88.8 53.2,88.8 53,88.8 52.9,88.8 52.8,88.8 52.7,88.8 
					52.6,88.8 52.5,88.7 52.4,88.7 52.3,88.7 52.2,88.7 52.1,88.7 52,88.7 51.9,88.7 				"/>
				<polygon class="st1" points="59.4,89.5 59.6,89.5 59.7,89.5 59.8,89.5 60,89.5 60.1,89.5 60.3,89.5 60.4,89.5 60.5,89.5 
					60.7,89.5 60.8,89.5 60.9,89.5 61.1,89.5 61.2,89.5 61.4,89.5 61.5,89.4 61.6,89.4 61.8,89.4 61.9,89.4 61.9,89.4 61.9,88.9 
					61.9,88.9 61.7,88.9 61.6,88.9 61.5,88.9 61.3,88.9 61.2,88.9 61.1,89 60.9,89 60.8,89 60.6,89 60.5,89 60.4,89 60.2,89 
					60.1,89 60,89 59.8,89 59.7,89 59.6,89 59.4,89 59.4,89 59.4,89.6 				"/>
				<polygon class="st1" points="64.6,89.1 64.7,89 64.8,89 65,89 65.1,89 65.3,88.9 65.4,88.9 65.5,88.9 65.7,88.9 65.8,88.8 
					65.9,88.8 66.1,88.8 66.2,88.7 66.4,88.7 66.5,88.7 66.6,88.6 66.8,88.6 66.9,88.6 67,88.5 67.2,88.5 67.3,88.5 67.4,88.4 
					67.6,88.4 67.7,88.3 67.8,88.3 68,88.3 68.1,88.2 68.2,88.2 68.4,88.1 68.5,88.1 68.6,88 68.8,88 68.9,88 69,87.9 69.2,87.9 
					69.3,87.8 69.4,87.8 69.5,87.7 69.3,87.3 69.2,87.3 69.1,87.3 69,87.4 68.9,87.4 68.7,87.5 68.6,87.5 68.5,87.6 68.4,87.6 
					68.2,87.6 68.1,87.7 68,87.7 67.8,87.8 67.7,87.8 67.6,87.8 67.4,87.9 67.3,87.9 67.2,88 67,88 66.9,88 66.8,88.1 66.6,88.1 
					66.5,88.1 66.4,88.2 66.2,88.2 66.1,88.2 66,88.3 65.8,88.3 65.7,88.3 65.6,88.4 65.4,88.4 65.3,88.4 65.2,88.4 65,88.5 
					64.9,88.5 64.7,88.5 64.6,88.5 64.5,88.6 64.4,88.6 64.5,89.1 				"/>
				<polygon class="st1" points="67.4,89.6 67.3,89.7 67.2,89.7 67.1,89.8 67,89.8 67.1,90.3 67.2,90.2 67.4,90.2 67.5,90.2 
					67.6,90.1 67.6,90.1 67.5,89.6 				"/>
				<polygon class="st1" points="53.3,90.9 53.2,90.9 53.1,90.9 53,90.9 52.9,90.9 52.9,90.9 52.8,91.4 52.9,91.4 53,91.4 
					53.1,91.4 53.1,91.4 53.2,91.4 53.3,91.4 53.4,91.4 53.4,90.9 53.4,90.9 				"/>
				<polygon class="st1" points="60.5,91 60.4,91 60.2,91 60.1,91 60,91 60,91.6 60.2,91.6 60.3,91.5 60.4,91.5 60.5,91.5 
					60.6,91.5 60.5,91 				"/>
				<polygon class="st1" points="48.8,90.7 48.8,90.7 48.8,90.7 				"/>
				<path class="st1" d="M48.8,90.7L48.8,90.7L48.8,90.7c0.8,0.2,1.8,0.4,2.5,0.5l0.1-0.5c-0.8-0.1-1.8-0.3-2.5-0.5L48.8,90.7z"/>
				<polygon class="st1" points="54.2,91 54.1,91 54,91 53.9,91 53.9,91 53.9,91.5 53.9,91.5 54,91.5 54.1,91.5 54.2,91.5 
					54.3,91.5 54.4,91.5 54.4,91 54.3,91 				"/>
				<polygon class="st1" points="56.6,91.1 56.5,91.1 56.4,91.1 56.3,91.1 56.2,91.1 56.1,91.1 56,91.1 55.9,91.1 55.9,91.6 
					56,91.6 56.1,91.6 56.2,91.6 56.3,91.6 56.4,91.6 56.5,91.6 56.6,91.6 56.7,91.6 56.8,91.6 57,91.6 57.1,91.6 57.2,91.6 
					57.3,91.6 57.4,91.6 57.5,91.6 57.6,91.6 57.8,91.6 57.9,91.6 58,91.6 58.1,91.6 58.2,91.6 58.3,91.6 58.5,91.6 58.5,91.6 
					58.5,91.1 58.4,91.1 58.3,91.1 58.2,91.1 58.1,91.1 58,91.1 57.9,91.1 57.8,91.1 57.6,91.1 57.5,91.1 57.4,91.1 57.3,91.1 
					57.2,91.1 57.1,91.1 57,91.1 56.8,91.1 56.7,91.1 				"/>
				<polygon class="st1" points="63.2,91.2 63.3,91.2 63.4,91.2 63.5,91.1 63.7,91.1 63.8,91.1 63.9,91.1 64.1,91.1 64.2,91 
					64.3,91 64.4,91 64.6,91 64.7,90.9 64.8,90.9 64.9,90.9 65.1,90.8 65.2,90.8 65.3,90.8 65.5,90.8 65.6,90.7 65.6,90.7 
					65.5,90.2 65.5,90.2 65.3,90.3 65.2,90.3 65.1,90.3 65,90.3 64.8,90.4 64.7,90.4 64.6,90.4 64.5,90.5 64.3,90.5 64.2,90.5 
					64.1,90.5 64,90.6 63.8,90.6 63.7,90.6 63.6,90.6 63.5,90.6 63.3,90.7 63.2,90.7 63.1,90.7 63,90.7 63.1,91.2 				"/>
				<polygon class="st1" points="70.1,89.1 70.2,89 70.3,89 70.4,88.9 70.6,88.9 70.7,88.8 70.8,88.7 70.9,88.7 71,88.6 71.2,88.5 
					71.3,88.5 71.4,88.4 71.5,88.3 71.6,88.3 71.7,88.2 71.9,88.1 72,88 72.1,88 72.2,87.9 72.3,87.8 72,87.4 71.9,87.5 71.8,87.5 
					71.7,87.6 71.6,87.7 71.5,87.7 71.4,87.8 71.3,87.9 71.1,88 71,88 70.9,88.1 70.8,88.2 70.7,88.2 70.6,88.3 70.4,88.3 
					70.3,88.4 70.2,88.5 70.1,88.5 70,88.6 69.9,88.6 69.8,88.7 70,89.1 				"/>
				<polygon class="st1" points="68.3,89.3 68.2,89.4 68.1,89.4 67.9,89.5 67.9,89.5 68.1,89.9 68.1,89.9 68.2,89.9 68.4,89.8 
					68.5,89.8 68.6,89.8 68.4,89.3 				"/>
				<polygon class="st1" points="61.5,90.9 61.3,90.9 61.2,90.9 61.1,91 61,91 61.1,91.5 61.1,91.5 61.3,91.5 61.4,91.4 61.5,91.4 
					61.6,91.4 61.5,90.9 				"/>
				<polygon class="st1" points="75.3,93.5 75.4,93.4 75.4,93.3 75.5,93.1 75.5,93 75.6,92.9 75.7,92.7 75.7,92.6 75.8,92.4 
					75.8,92.3 75.9,92.2 75.9,92 76,91.9 76,91.7 76.1,91.6 76.1,91.4 76.2,91.3 76.2,91.1 76.2,91.1 75.7,91 75.7,91 75.7,91.1 
					75.6,91.3 75.6,91.4 75.5,91.6 75.5,91.7 75.4,91.9 75.4,92 75.3,92.1 75.3,92.3 75.2,92.4 75.2,92.5 75.1,92.7 75.1,92.8 
					75,92.9 75,93 74.9,93.2 74.8,93.3 74.8,93.3 75.3,93.5 				"/>
				<polygon class="st1" points="71.3,98.2 71.4,98.1 71.5,98 71.6,97.9 71.7,97.9 71.8,97.8 71.9,97.7 72,97.6 72.1,97.5 
					72.2,97.5 72.3,97.4 72.4,97.3 72.5,97.2 72.6,97.1 72.7,97 72.8,96.9 72.9,96.8 73,96.7 73.1,96.6 73.2,96.5 73.2,96.5 
					72.8,96.2 72.8,96.2 72.7,96.3 72.6,96.4 72.5,96.5 72.4,96.6 72.3,96.6 72.3,96.7 72.2,96.8 72.1,96.9 72,97 71.9,97.1 
					71.8,97.2 71.7,97.2 71.6,97.3 71.5,97.4 71.4,97.5 71.3,97.5 71.2,97.6 71.1,97.7 71,97.8 70.9,97.8 71.2,98.2 				"/>
				<polygon class="st1" points="68.7,99.8 68.8,99.7 68.9,99.7 69,99.6 69.1,99.6 69.2,99.5 69.3,99.4 69.4,99.4 69.5,99.3 
					69.6,99.3 69.7,99.2 69.8,99.1 70,99.1 70.1,99 70.2,99 70.3,98.9 70.4,98.8 70.5,98.8 70.6,98.7 70.7,98.6 70.8,98.5 
					70.8,98.5 70.5,98.1 70.5,98.1 70.4,98.2 70.3,98.3 70.2,98.3 70.1,98.4 70,98.5 69.9,98.5 69.8,98.6 69.7,98.6 69.6,98.7 
					69.5,98.8 69.4,98.8 69.3,98.9 69.2,98.9 69.1,99 69,99.1 68.9,99.1 68.7,99.2 68.6,99.2 68.5,99.3 68.4,99.3 68.3,99.4 
					68.6,99.8 				"/>
				<polygon class="st1" points="76.4,90.5 76.4,90.4 76.4,90.2 76.5,90 76.5,89.9 76.5,89.7 76.5,89.5 76.6,89.4 76.6,89.2 
					76.6,89 76.6,88.9 76.6,88.7 76.7,88.5 76.7,88.3 76.7,88.2 76.7,88 76.2,88 76.2,88.1 76.2,88.3 76.2,88.5 76.1,88.6 
					76.1,88.8 76.1,89 76.1,89.1 76.1,89.3 76,89.5 76,89.6 76,89.8 75.9,89.9 75.9,90.1 75.9,90.2 75.9,90.4 75.8,90.5 76.3,90.6 
									"/>
				<polygon class="st1" points="73.6,96.1 73.7,96 73.8,95.8 73.9,95.7 73.9,95.6 74,95.5 74.1,95.4 74.2,95.3 74.3,95.2 
					74.4,95.1 74.4,95 74.5,94.9 74.6,94.7 74.7,94.6 74.7,94.5 74.8,94.4 74.9,94.3 75,94.1 75,94 75,94 74.6,93.8 74.6,93.8 
					74.5,93.9 74.4,94 74.4,94.1 74.3,94.2 74.2,94.4 74.2,94.5 74.1,94.6 74,94.7 73.9,94.8 73.9,94.9 73.8,95 73.7,95.1 
					73.6,95.2 73.5,95.3 73.5,95.4 73.4,95.5 73.3,95.6 73.2,95.7 73.2,95.8 73.5,96.1 				"/>
				<polygon class="st1" points="62.6,101.7 62.7,101.7 62.8,101.6 62.9,101.6 63,101.6 63.1,101.6 63.2,101.6 63.3,101.6 
					63.4,101.5 63.5,101.5 63.5,101.5 63.6,101.5 63.7,101.5 63.8,101.4 63.9,101.4 64,101.4 64.1,101.4 64.2,101.3 64.3,101.3 
					64.4,101.3 64.5,101.3 64.6,101.2 64.7,101.2 64.8,101.2 64.9,101.2 65,101.1 65.1,101.1 65.2,101.1 65,100.6 65,100.6 
					64.9,100.6 64.8,100.7 64.7,100.7 64.6,100.7 64.5,100.7 64.4,100.8 64.3,100.8 64.2,100.8 64.1,100.8 64,100.9 63.9,100.9 
					63.8,100.9 63.7,100.9 63.6,101 63.5,101 63.4,101 63.3,101 63.3,101 63.2,101 63.1,101.1 63,101.1 62.9,101.1 62.8,101.1 
					62.7,101.1 62.6,101.1 62.6,101.2 62.5,101.2 62.6,101.7 				"/>
				<polygon class="st1" points="65.7,100.9 65.8,100.9 66,100.9 66.1,100.8 66.2,100.8 66.3,100.7 66.4,100.7 66.5,100.7 
					66.6,100.6 66.7,100.6 66.8,100.6 66.9,100.5 67,100.5 67.1,100.4 67.2,100.4 67.3,100.4 67.5,100.3 67.6,100.3 67.7,100.2 
					67.8,100.2 67.9,100.1 68,100.1 68.1,100 67.9,99.6 67.8,99.6 67.7,99.7 67.6,99.7 67.5,99.7 67.4,99.8 67.3,99.8 67.2,99.9 
					67.1,99.9 66.9,100 66.8,100 66.7,100 66.6,100.1 66.5,100.1 66.4,100.2 66.3,100.2 66.2,100.2 66.1,100.3 66,100.3 65.9,100.3 
					65.8,100.4 65.7,100.4 65.6,100.4 65.5,100.5 65.7,101 				"/>
				<polygon class="st1" points="76.2,85.4 76.2,85.6 76.2,85.8 76.2,86 76.2,86.1 76.2,86.3 76.2,86.5 76.2,86.7 76.2,86.9 
					76.2,87.1 76.2,87.3 76.2,87.4 76.2,87.5 76.7,87.5 76.7,87.4 76.7,87.3 76.7,87.1 76.7,86.9 76.7,86.7 76.7,86.5 76.7,86.3 
					76.7,86.1 76.7,85.9 76.7,85.7 76.7,85.5 76.7,85.3 76.7,85.1 76.6,84.9 76.6,84.9 76.1,85 76.1,85 76.2,85.2 				"/>
				<path class="st1" d="M62.1,101.8l-0.1-0.5c-0.8,0.1-1.7,0.2-2.5,0.2l0,0.5C59.5,102,61.3,101.9,62.1,101.8z"/>
				<polygon class="st1" points="79.6,96.5 79.6,96.5 79.6,96.5 				"/>
				<polygon class="st1" points="81.3,92.7 81.3,92.5 81.3,92.4 81.3,92.3 81.3,92.2 80.8,92.2 80.8,92.2 80.8,92.3 80.8,92.5 
					80.8,92.6 80.8,92.7 81.3,92.8 				"/>
				<polygon class="st1" points="80.1,96.7 80.1,96.6 80.2,96.5 80.2,96.4 80.3,96.3 80.3,96.1 80.4,96 80.4,95.9 80.5,95.8 
					80.5,95.7 80.6,95.5 80.6,95.4 80.7,95.3 80.7,95.2 80.8,95 80.8,94.9 80.8,94.8 80.9,94.7 80.9,94.5 80.9,94.4 81,94.3 
					80.5,94.2 80.4,94.3 80.4,94.4 80.4,94.5 80.3,94.6 80.3,94.8 80.3,94.9 80.2,95 80.2,95.1 80.1,95.2 80.1,95.4 80.1,95.5 
					80,95.6 80,95.7 79.9,95.8 79.9,95.9 79.8,96.1 79.8,96.2 79.7,96.3 79.7,96.4 79.6,96.5 80.1,96.7 				"/>
				<polygon class="st1" points="69.5,106.3 69.6,106.2 69.7,106.2 69.8,106.2 69.9,106.1 70,106.1 70,106.1 69.8,105.6 69.7,105.6 
					69.6,105.7 69.6,105.7 69.5,105.7 69.4,105.8 69.3,105.8 69.3,105.8 69.5,106.3 				"/>
				<polygon class="st1" points="79.1,98.5 79.1,98.4 79.2,98.3 79.3,98.2 79.3,98.1 78.9,97.8 78.8,97.9 78.8,98 78.7,98.1 
					78.6,98.2 78.6,98.3 79,98.5 				"/>
				<polygon class="st1" points="65.7,107.9 65.7,107.9 65.7,107.9 				"/>
				<polygon class="st1" points="65.5,107.4 65.5,107.4 65.5,107.4 				"/>
				<path class="st1" d="M65.7,107.8L65.7,107.8c0.2,0,2.2-0.8,2.4-0.9l-0.2-0.5c-0.8,0.3-1.6,0.6-2.4,0.9L65.7,107.8L65.7,107.8z"
					/>
				<polygon class="st1" points="71.4,105.3 71.5,105.3 71.5,105.2 71.6,105.2 71.7,105.1 71.8,105 71.9,105 72,104.9 72.1,104.9 
					72.2,104.8 72.3,104.8 72.4,104.7 72.5,104.7 72.6,104.6 72.7,104.5 72.7,104.5 72.8,104.4 72.9,104.4 73,104.3 73.1,104.2 
					73.2,104.2 73.3,104.1 73.4,104 73.5,104 73.5,104 73.2,103.5 73.2,103.6 73.1,103.6 73,103.7 72.9,103.7 72.8,103.8 
					72.7,103.9 72.7,103.9 72.6,104 72.5,104 72.4,104.1 72.3,104.2 72.2,104.2 72.1,104.3 72,104.3 71.9,104.4 71.8,104.4 
					71.7,104.5 71.7,104.6 71.6,104.6 71.5,104.7 71.4,104.7 71.3,104.8 71.2,104.8 71.1,104.9 71.1,104.9 71.3,105.3 				"/>
				<polygon class="st1" points="76.4,101.6 76.5,101.5 76.6,101.4 76.7,101.4 76.8,101.3 76.9,101.2 77,101.1 77,101 77.1,100.9 
					77.2,100.8 77.3,100.7 77.4,100.6 77.5,100.6 77.5,100.5 77.6,100.4 77.7,100.3 77.8,100.2 77.9,100.1 78,100 78,99.9 
					78.1,99.8 78.1,99.8 77.7,99.5 77.7,99.5 77.6,99.6 77.6,99.7 77.5,99.8 77.4,99.9 77.3,99.9 77.2,100 77.2,100.1 77.1,100.2 
					77,100.3 76.9,100.4 76.8,100.5 76.8,100.6 76.7,100.6 76.6,100.7 76.5,100.8 76.4,100.9 76.3,101 76.3,101.1 76.2,101.2 
					76.1,101.2 76,101.3 76.4,101.7 				"/>
				<polygon class="st1" points="74.8,103 74.9,102.9 75,102.9 75.1,102.8 75.2,102.7 75.2,102.7 74.9,102.3 74.8,102.3 74.8,102.4 
					74.7,102.5 74.6,102.5 74.5,102.6 74.5,102.6 74.8,103 				"/>
				<polygon class="st1" points="59.3,126 59.4,126 59.5,126 59.6,126 59.7,126 59.9,126 60,125.9 60.1,125.9 60.2,125.9 
					60.4,125.9 60.5,125.9 60.6,125.9 60.7,125.8 60.9,125.8 61,125.8 61.1,125.8 61.3,125.8 61.4,125.7 61.5,125.7 61.7,125.7 
					61.8,125.7 61.9,125.6 62.1,125.6 62.2,125.6 62.4,125.6 62.5,125.5 62.6,125.5 62.8,125.5 62.9,125.5 63.1,125.4 63.2,125.4 
					63.3,125.4 63.5,125.3 63.6,125.3 63.8,125.3 63.9,125.2 64.1,125.2 64.2,125.2 64.2,125.2 64.1,124.7 64.1,124.7 64,124.7 
					63.8,124.7 63.7,124.8 63.5,124.8 63.4,124.8 63.2,124.9 63.1,124.9 63,124.9 62.8,125 62.7,125 62.5,125 62.4,125 62.3,125.1 
					62.1,125.1 62,125.1 61.8,125.1 61.7,125.2 61.6,125.2 61.4,125.2 61.3,125.2 61.2,125.2 61.1,125.3 60.9,125.3 60.8,125.3 
					60.7,125.3 60.5,125.4 60.4,125.4 60.3,125.4 60.2,125.4 60,125.4 59.9,125.4 59.8,125.5 59.7,125.5 59.6,125.5 59.4,125.5 
					59.3,125.5 59.2,125.5 59.1,125.5 59.1,126.1 				"/>
				<polygon class="st1" points="71.6,122.8 71.8,122.7 71.9,122.6 72.1,122.6 72.3,122.5 72.4,122.4 72.6,122.3 72.7,122.3 
					72.9,122.2 73.1,122.1 73.2,122 73.4,122 73.6,121.9 73.7,121.8 73.9,121.7 74.1,121.6 74.2,121.5 74.4,121.5 74.5,121.4 
					74.7,121.3 74.9,121.2 75,121.1 75.2,121 75.4,120.9 75.5,120.8 75.7,120.7 75.8,120.6 76,120.5 76.1,120.5 75.9,120 
					75.7,120.1 75.6,120.2 75.4,120.3 75.3,120.4 75.1,120.5 74.9,120.6 74.8,120.6 74.6,120.7 74.5,120.8 74.3,120.9 74.1,121 
					74,121.1 73.8,121.2 73.7,121.3 73.5,121.3 73.3,121.4 73.2,121.5 73,121.6 72.9,121.7 72.7,121.7 72.5,121.8 72.4,121.9 
					72.2,122 72,122 71.9,122.1 71.7,122.2 71.6,122.2 71.4,122.3 71.4,122.3 71.6,122.8 				"/>
				<path class="st1" d="M54.2,125.9l-0.1,0h0l0,0.5h0c0,0,1.7,0,2.6-0.1h0l0-0.5C55.8,125.8,55,125.9,54.2,125.9z"/>
				<polygon class="st1" points="78.4,119 78.6,118.8 78.7,118.7 78.9,118.6 79,118.5 79.2,118.4 79.3,118.2 79.5,118.1 79.6,118 
					79.8,117.9 79.9,117.8 80.1,117.6 80.3,117.5 80.3,117.4 80,117 79.9,117.1 79.8,117.2 79.6,117.4 79.5,117.5 79.3,117.6 
					79.2,117.7 79,117.8 78.9,118 78.7,118.1 78.6,118.2 78.4,118.3 78.2,118.4 78.1,118.5 78,118.6 78.3,119 				"/>
				<polygon class="st1" points="66.8,124.5 66.9,124.5 67.1,124.4 67.3,124.4 67.4,124.3 67.6,124.3 67.7,124.2 67.9,124.2 
					68,124.1 68.2,124.1 68.4,124 68.5,124 68.7,123.9 68.8,123.8 69,123.8 69.2,123.7 69,123.3 68.8,123.3 68.7,123.4 68.5,123.4 
					68.4,123.5 68.2,123.5 68,123.6 67.9,123.6 67.7,123.7 67.6,123.7 67.4,123.8 67.3,123.8 67.1,123.9 67,123.9 66.8,124 
					66.6,124 66.6,124 66.7,124.5 				"/>
				<polygon class="st1" points="75.4,113.4 75.6,113.3 75.7,113.2 75.9,113.1 76.1,113.1 76.2,113 76.4,112.9 76.5,112.8 
					76.7,112.7 76.9,112.6 77,112.5 77.2,112.4 77.3,112.3 77.5,112.3 77.6,112.2 77.8,112.1 77.9,112 78.1,111.9 78.2,111.8 
					78.4,111.7 78.5,111.6 78.7,111.5 78.8,111.4 79,111.3 79.1,111.2 79.3,111.1 79.4,111 79.6,110.9 79.7,110.8 79.8,110.7 
					79.4,110.3 79.4,110.4 79.3,110.5 79.1,110.6 79,110.7 78.8,110.8 78.7,110.9 78.5,111 78.4,111.1 78.3,111.2 78.1,111.3 
					78,111.4 77.8,111.4 77.7,111.5 77.5,111.6 77.4,111.7 77.2,111.8 77.1,111.9 76.9,112 76.8,112.1 76.6,112.2 76.4,112.3 
					76.3,112.4 76.1,112.4 76,112.5 75.8,112.6 75.7,112.7 75.5,112.8 75.3,112.9 75.2,112.9 75.1,113 75.4,113.4 				"/>
				<path class="st1" d="M53.1,119.4c0,0,3.1-0.4,4.6-0.6l0.5-0.1l-0.1-0.5c-1.7,0.3-3.3,0.5-5,0.7l0,0l0,0L53.1,119.4L53.1,119.4z"
					/>
				<polygon class="st1" points="60.9,118.2 61,118.2 61.2,118.1 61.3,118.1 61.5,118.1 61.6,118 61.8,118 61.9,118 62.1,117.9 
					62.3,117.9 62.4,117.9 62.6,117.8 62.7,117.8 62.9,117.8 63.1,117.7 63.2,117.7 63.4,117.6 63.5,117.6 63.7,117.6 63.9,117.5 
					64,117.5 64.2,117.4 64.4,117.4 64.5,117.4 64.7,117.3 64.8,117.3 65,117.2 65.2,117.2 65.3,117.1 65.5,117.1 65.7,117 
					65.7,117 65.6,116.5 65.5,116.5 65.4,116.6 65.2,116.6 65,116.7 64.9,116.7 64.7,116.8 64.6,116.8 64.4,116.9 64.2,116.9 
					64.1,116.9 63.9,117 63.7,117 63.6,117.1 63.4,117.1 63.3,117.1 63.1,117.2 62.9,117.2 62.8,117.3 62.6,117.3 62.5,117.3 
					62.3,117.4 62.1,117.4 62,117.4 61.8,117.5 61.7,117.5 61.5,117.5 61.4,117.6 61.2,117.6 61.1,117.6 60.9,117.7 60.8,117.7 
					60.6,117.7 60.7,118.2 				"/>
				<polygon class="st1" points="68.2,116.3 68.4,116.2 68.6,116.2 68.8,116.1 68.9,116.1 69.1,116 69.3,115.9 69.5,115.9 
					69.6,115.8 69.8,115.8 70,115.7 70.2,115.6 70.3,115.6 70.5,115.5 70.7,115.4 70.8,115.4 71,115.3 71.2,115.3 71.4,115.2 
					71.5,115.1 71.7,115.1 71.9,115 72,114.9 72.2,114.8 72.4,114.8 72.6,114.7 72.7,114.6 72.9,114.6 73,114.5 72.8,114 
					72.7,114.1 72.5,114.2 72.4,114.2 72.2,114.3 72,114.4 71.9,114.4 71.7,114.5 71.5,114.6 71.3,114.6 71.2,114.7 71,114.8 
					70.8,114.8 70.7,114.9 70.5,115 70.3,115 70.1,115.1 70,115.2 69.8,115.2 69.6,115.3 69.5,115.3 69.3,115.4 69.1,115.5 
					68.9,115.5 68.8,115.6 68.6,115.6 68.4,115.7 68.3,115.7 68.1,115.8 68,115.8 68.2,116.3 				"/>
			</g>
		</g>
	</g>
</g>
<g id="DESIGNED_BY_FREEPIK">
</g>
</svg>
